HIERARCHY
ROOT root
{
	OFFSET 0.000778 -0.024885 0.000000
	CHANNELS 6 Xposition Yposition Zposition Xrotation Yrotation Zrotation
	JOINT hips
	{
		OFFSET -0.000778 -0.026342 1.023445
		CHANNELS 6 Xposition Yposition Zposition Xrotation Yrotation Zrotation
		JOINT spine
		{
			OFFSET 0.000000 0.000701 0.173800
			CHANNELS 3 Xrotation Yrotation Zrotation
			JOINT chest
			{
				OFFSET 0.000000 0.004485 0.173580
				CHANNELS 3 Xrotation Yrotation Zrotation
				JOINT upper_chest
				{
					OFFSET -0.000041 0.010982 0.126274
					CHANNELS 3 Xrotation Yrotation Zrotation
					JOINT neck
					{
						OFFSET 0.000041 0.056134 0.143685
						CHANNELS 6 Xposition Yposition Zposition Xrotation Yrotation Zrotation
						JOINT head
						{
							OFFSET 0.000000 -0.022555 0.101814
							CHANNELS 3 Xrotation Yrotation Zrotation
							End Site
							{
								OFFSET -0.000000 -0.005805 0.244347
							}
						}
					}
					JOINT shoulder.L
					{
						OFFSET 0.018542 -0.003344 0.084525
						CHANNELS 6 Xposition Yposition Zposition Yrotation Xrotation Zrotation
						JOINT upper_arm.1.L
						{
							OFFSET 0.181443 0.088619 0.012264
							CHANNELS 6 Xposition Yposition Zposition Xrotation Yrotation Zrotation
							JOINT upper_arm.2.L
							{
								OFFSET 0.121228 0.000105 -0.007377
								CHANNELS 3 Xrotation Yrotation Zrotation
								JOINT forearm.1.L
								{
									OFFSET 0.121228 0.000105 -0.007377
									CHANNELS 3 Xrotation Yrotation Zrotation
									JOINT forearm.2.L
									{
										OFFSET 0.125915 -0.007892 0.006288
										CHANNELS 3 Xrotation Yrotation Zrotation
										JOINT hand.L
										{
											OFFSET 0.125915 -0.007892 0.006288
											CHANNELS 3 Xrotation Yrotation Zrotation
											JOINT f_index.01.L
											{
												OFFSET 0.131560 -0.044288 -0.003431
												CHANNELS 6 Xposition Yposition Zposition Xrotation Yrotation Zrotation
												JOINT f_index.02.L
												{
													OFFSET 0.050411 -0.010549 -0.010750
													CHANNELS 3 Xrotation Yrotation Zrotation
													JOINT f_index.03.L
													{
														OFFSET 0.037184 -0.009199 -0.007596
														CHANNELS 3 Xrotation Yrotation Zrotation
														End Site
														{
															OFFSET 0.023614 -0.007084 -0.005638
														}
													}
												}
											}
											JOINT thumb.01.L
											{
												OFFSET 0.036406 -0.036857 -0.011201
												CHANNELS 6 Xposition Yposition Zposition Xrotation Yrotation Zrotation
												JOINT thumb.02.L
												{
													OFFSET 0.027632 -0.039847 -0.022337
													CHANNELS 3 Xrotation Yrotation Zrotation
													JOINT thumb.03.L
													{
														OFFSET 0.035910 -0.021705 -0.026058
														CHANNELS 3 Xrotation Yrotation Zrotation
														End Site
														{
															OFFSET 0.023943 -0.015813 -0.015997
														}
													}
												}
											}
											JOINT f_index.Control.L
											{
												OFFSET 0.134004 -0.042501 0.009780
												CHANNELS 6 Xposition Yposition Zposition Xrotation Yrotation Zrotation
												End Site
												{
													OFFSET 0.109561 -0.024990 -0.026667
												}
											}
											JOINT thumb.Control.L
											{
												OFFSET 0.023206 -0.054984 -0.005131
												CHANNELS 6 Xposition Yposition Zposition Xrotation Yrotation Zrotation
												End Site
												{
													OFFSET 0.087342 -0.079858 -0.066571
												}
											}
											JOINT f_middle.01.L
											{
												OFFSET 0.141806 -0.009006 -0.004346
												CHANNELS 6 Xposition Yposition Zposition Xrotation Yrotation Zrotation
												JOINT f_middle.02.L
												{
													OFFSET 0.052993 -0.002461 -0.011176
													CHANNELS 3 Xrotation Yrotation Zrotation
													JOINT f_middle.03.L
													{
														OFFSET 0.038906 -0.001808 -0.008503
														CHANNELS 3 Xrotation Yrotation Zrotation
														End Site
														{
															OFFSET 0.036400 -0.001927 -0.007459
														}
													}
												}
											}
											JOINT f_middle.Control.L
											{
												OFFSET 0.143084 -0.008949 0.006529
												CHANNELS 6 Xposition Yposition Zposition Xrotation Yrotation Zrotation
												End Site
												{
													OFFSET 0.130856 -0.008196 -0.023939
												}
											}
											JOINT Fist.Control.L
											{
												OFFSET 0.138971 0.005924 0.004276
												CHANNELS 6 Xposition Yposition Zposition Xrotation Yrotation Zrotation
												End Site
												{
													OFFSET 0.243172 0.011494 -0.048915
												}
											}
											JOINT f_ring.01.L
											{
												OFFSET 0.139782 0.023734 -0.007806
												CHANNELS 6 Xposition Yposition Zposition Xrotation Yrotation Zrotation
												JOINT f_ring.02.L
												{
													OFFSET 0.052318 0.007188 -0.013983
													CHANNELS 3 Xrotation Yrotation Zrotation
													JOINT f_ring.03.L
													{
														OFFSET 0.035419 0.004506 -0.009607
														CHANNELS 3 Xrotation Yrotation Zrotation
														End Site
														{
															OFFSET 0.026744 0.002952 -0.006476
														}
													}
												}
											}
											JOINT f_ring.Control.L
											{
												OFFSET 0.143240 0.023967 0.004622
												CHANNELS 6 Xposition Yposition Zposition Xrotation Yrotation Zrotation
												End Site
												{
													OFFSET 0.113524 0.014515 -0.027561
												}
											}
											JOINT f_pinky.01.L
											{
												OFFSET 0.130197 0.052245 -0.017993
												CHANNELS 6 Xposition Yposition Zposition Xrotation Yrotation Zrotation
												JOINT f_pinky.02.L
												{
													OFFSET 0.043785 0.015271 -0.009339
													CHANNELS 3 Xrotation Yrotation Zrotation
													JOINT f_pinky.03.L
													{
														OFFSET 0.023268 0.008631 -0.005774
														CHANNELS 3 Xrotation Yrotation Zrotation
														End Site
														{
															OFFSET 0.024109 0.008235 -0.006019
														}
													}
												}
											}
											JOINT f_pinky.Control.L
											{
												OFFSET 0.130197 0.052245 -0.002467
												CHANNELS 6 Xposition Yposition Zposition Xrotation Yrotation Zrotation
												End Site
												{
													OFFSET 0.093182 0.031823 -0.022270
												}
											}
										}
									}
								}
							}
						}
					}
					JOINT IK.elbow.L
					{
						OFFSET 0.442441 0.408671 0.082035
						CHANNELS 6 Xposition Yposition Zposition Xrotation Yrotation Zrotation
						End Site
						{
							OFFSET 0.000000 0.097129 0.000000
						}
					}
					JOINT IK.hand.L
					{
						OFFSET 0.694272 0.069701 0.094612
						CHANNELS 6 Xposition Yposition Zposition Xrotation Yrotation Zrotation
						End Site
						{
							OFFSET 0.109769 0.006358 -0.012711
						}
					}
					JOINT shoulder.R
					{
						OFFSET -0.018959 -0.003344 0.084525
						CHANNELS 6 Xposition Yposition Zposition Yrotation Xrotation Zrotation
						JOINT upper_arm.1.R
						{
							OFFSET -0.180944 0.088619 0.012264
							CHANNELS 6 Xposition Yposition Zposition Xrotation Yrotation Zrotation
							JOINT upper_arm.2.R
							{
								OFFSET -0.121228 0.000105 -0.007377
								CHANNELS 3 Xrotation Yrotation Zrotation
								JOINT forearm.1.R
								{
									OFFSET -0.121228 0.000105 -0.007377
									CHANNELS 3 Xrotation Yrotation Zrotation
									JOINT forearm.2.R
									{
										OFFSET -0.125915 -0.007892 0.006288
										CHANNELS 3 Xrotation Yrotation Zrotation
										JOINT hand.R
										{
											OFFSET -0.125915 -0.007892 0.006288
											CHANNELS 3 Xrotation Yrotation Zrotation
											JOINT f_index.01.R
											{
												OFFSET -0.131560 -0.044288 -0.003431
												CHANNELS 6 Xposition Yposition Zposition Xrotation Yrotation Zrotation
												JOINT f_index.02.R
												{
													OFFSET -0.050411 -0.010549 -0.010750
													CHANNELS 3 Xrotation Yrotation Zrotation
													JOINT f_index.03.R
													{
														OFFSET -0.037184 -0.009199 -0.007596
														CHANNELS 3 Xrotation Yrotation Zrotation
														End Site
														{
															OFFSET -0.023614 -0.007084 -0.005638
														}
													}
												}
											}
											JOINT thumb.01.R
											{
												OFFSET -0.036406 -0.036857 -0.011201
												CHANNELS 6 Xposition Yposition Zposition Xrotation Yrotation Zrotation
												JOINT thumb.02.R
												{
													OFFSET -0.027632 -0.039847 -0.022337
													CHANNELS 3 Xrotation Yrotation Zrotation
													JOINT thumb.03.R
													{
														OFFSET -0.035910 -0.021705 -0.026058
														CHANNELS 3 Xrotation Yrotation Zrotation
														End Site
														{
															OFFSET -0.023943 -0.015813 -0.015997
														}
													}
												}
											}
											JOINT f_index.Control.R
											{
												OFFSET -0.134004 -0.042501 0.009780
												CHANNELS 6 Xposition Yposition Zposition Xrotation Yrotation Zrotation
												End Site
												{
													OFFSET -0.109561 -0.024990 -0.026667
												}
											}
											JOINT thumb.Control.R
											{
												OFFSET -0.023206 -0.054984 -0.005131
												CHANNELS 6 Xposition Yposition Zposition Xrotation Yrotation Zrotation
												End Site
												{
													OFFSET -0.087342 -0.079858 -0.066571
												}
											}
											JOINT f_middle.01.R
											{
												OFFSET -0.141806 -0.009006 -0.004346
												CHANNELS 6 Xposition Yposition Zposition Xrotation Yrotation Zrotation
												JOINT f_middle.02.R
												{
													OFFSET -0.052993 -0.002461 -0.011176
													CHANNELS 3 Xrotation Yrotation Zrotation
													JOINT f_middle.03.R
													{
														OFFSET -0.038906 -0.001808 -0.008503
														CHANNELS 3 Xrotation Yrotation Zrotation
														End Site
														{
															OFFSET -0.036400 -0.001927 -0.007459
														}
													}
												}
											}
											JOINT f_middle.Control.R
											{
												OFFSET -0.143084 -0.008949 0.006529
												CHANNELS 6 Xposition Yposition Zposition Xrotation Yrotation Zrotation
												End Site
												{
													OFFSET -0.130856 -0.008196 -0.023939
												}
											}
											JOINT Fist.Control.R
											{
												OFFSET -0.138971 0.005924 0.004276
												CHANNELS 6 Xposition Yposition Zposition Xrotation Yrotation Zrotation
												End Site
												{
													OFFSET -0.243172 0.011494 -0.048915
												}
											}
											JOINT f_ring.01.R
											{
												OFFSET -0.139782 0.023734 -0.007806
												CHANNELS 6 Xposition Yposition Zposition Xrotation Yrotation Zrotation
												JOINT f_ring.02.R
												{
													OFFSET -0.052318 0.007188 -0.013983
													CHANNELS 3 Xrotation Yrotation Zrotation
													JOINT f_ring.03.R
													{
														OFFSET -0.035419 0.004506 -0.009607
														CHANNELS 3 Xrotation Yrotation Zrotation
														End Site
														{
															OFFSET -0.026744 0.002952 -0.006476
														}
													}
												}
											}
											JOINT f_ring.Control.R
											{
												OFFSET -0.143240 0.023967 0.004622
												CHANNELS 6 Xposition Yposition Zposition Xrotation Yrotation Zrotation
												End Site
												{
													OFFSET -0.113524 0.014515 -0.027561
												}
											}
											JOINT f_pinky.01.R
											{
												OFFSET -0.130197 0.052245 -0.017993
												CHANNELS 6 Xposition Yposition Zposition Xrotation Yrotation Zrotation
												JOINT f_pinky.02.R
												{
													OFFSET -0.043785 0.015271 -0.009339
													CHANNELS 3 Xrotation Yrotation Zrotation
													JOINT f_pinky.03.R
													{
														OFFSET -0.023268 0.008631 -0.005774
														CHANNELS 3 Xrotation Yrotation Zrotation
														End Site
														{
															OFFSET -0.024109 0.008235 -0.006019
														}
													}
												}
											}
											JOINT f_pinky.Control.R
											{
												OFFSET -0.130197 0.052245 -0.002467
												CHANNELS 6 Xposition Yposition Zposition Xrotation Yrotation Zrotation
												End Site
												{
													OFFSET -0.093182 0.031823 -0.022270
												}
											}
										}
									}
								}
							}
						}
					}
					JOINT IK.elbow.R
					{
						OFFSET -0.442359 0.408671 0.082035
						CHANNELS 6 Xposition Yposition Zposition Xrotation Yrotation Zrotation
						End Site
						{
							OFFSET 0.000000 0.097129 0.000000
						}
					}
					JOINT IK.hand.R
					{
						OFFSET -0.694190 0.069701 0.094612
						CHANNELS 6 Xposition Yposition Zposition Xrotation Yrotation Zrotation
						End Site
						{
							OFFSET -0.109769 0.006358 -0.012711
						}
					}
				}
			}
		}
		JOINT thigh.L
		{
			OFFSET 0.081843 -0.003680 0.016937
			CHANNELS 6 Xposition Yposition Zposition Xrotation Yrotation Zrotation
			JOINT shin.L
			{
				OFFSET 0.016157 0.012428 -0.416774
				CHANNELS 3 Xrotation Yrotation Zrotation
				JOINT foot.L
				{
					OFFSET 0.000000 0.067191 -0.482834
					CHANNELS 3 Xrotation Yrotation Zrotation
					JOINT toe.L
					{
						OFFSET 0.010291 -0.131807 -0.088714
						CHANNELS 3 Xrotation Yrotation Zrotation
						End Site
						{
							OFFSET -0.003804 -0.096707 -0.008519
						}
					}
				}
			}
		}
		JOINT thigh.R
		{
			OFFSET -0.081843 -0.003680 0.016937
			CHANNELS 6 Xposition Yposition Zposition Xrotation Yrotation Zrotation
			JOINT shin.R
			{
				OFFSET -0.016157 0.012428 -0.416774
				CHANNELS 3 Xrotation Yrotation Zrotation
				JOINT foot.R
				{
					OFFSET 0.000000 0.067191 -0.482834
					CHANNELS 3 Xrotation Yrotation Zrotation
					JOINT toe.R
					{
						OFFSET -0.010291 -0.131807 -0.088714
						CHANNELS 3 Xrotation Yrotation Zrotation
						End Site
						{
							OFFSET 0.003804 -0.096707 -0.008519
						}
					}
				}
			}
		}
	}
	JOINT Foot_Control.L
	{
		OFFSET 0.113238 -0.024692 0.000432
		CHANNELS 6 Xposition Yposition Zposition Xrotation Yrotation Zrotation
		JOINT Heel_Roll.L
		{
			OFFSET 0.000000 0.158529 0.000568
			CHANNELS 6 Xposition Yposition Zposition Xrotation Yrotation Zrotation
			JOINT IK.knee.L
			{
				OFFSET -0.016016 -0.691813 0.622580
				CHANNELS 6 Xposition Yposition Zposition Xrotation Yrotation Zrotation
				End Site
				{
					OFFSET 0.000000 -0.120098 0.000000
				}
			}
			JOINT Toe_Roll.L
			{
				OFFSET 0.000000 -0.317058 -0.001135
				CHANNELS 3 Xrotation Yrotation Zrotation
				JOINT Foot_Roll.L
				{
					OFFSET -0.005724 0.101011 0.052196
					CHANNELS 3 Xrotation Yrotation Zrotation
					JOINT IK.heel.L
					{
						OFFSET -0.010291 0.131807 0.088714
						CHANNELS 6 Xposition Yposition Zposition Xrotation Yrotation Zrotation
						End Site
						{
							OFFSET 0.000000 0.168428 0.002748
						}
					}
				}
				JOINT Tip_Bend.L
				{
					OFFSET -0.005724 0.101011 0.052196
					CHANNELS 3 Xrotation Yrotation Zrotation
					JOINT IK.Toe.L
					{
						OFFSET -0.003804 -0.096707 -0.008519
						CHANNELS 6 Xposition Yposition Zposition Xrotation Yrotation Zrotation
						End Site
						{
							OFFSET 0.000000 0.000000 0.065172
						}
					}
				}
				JOINT IK.Foot.L
				{
					OFFSET -0.005724 0.101011 0.052196
					CHANNELS 6 Xposition Yposition Zposition Xrotation Yrotation Zrotation
					End Site
					{
						OFFSET 0.000000 0.000000 0.065172
					}
				}
			}
		}
	}
	JOINT Foot_Control.R
	{
		OFFSET -0.114793 -0.024692 0.000432
		CHANNELS 6 Xposition Yposition Zposition Xrotation Yrotation Zrotation
		JOINT Heel_Roll.R
		{
			OFFSET 0.000000 0.158529 0.000568
			CHANNELS 6 Xposition Yposition Zposition Xrotation Yrotation Zrotation
			JOINT IK.knee.R
			{
				OFFSET 0.016016 -0.691813 0.622580
				CHANNELS 6 Xposition Yposition Zposition Xrotation Yrotation Zrotation
				End Site
				{
					OFFSET 0.000000 -0.120098 0.000000
				}
			}
			JOINT Toe_Roll.R
			{
				OFFSET 0.000000 -0.317058 -0.001135
				CHANNELS 3 Xrotation Yrotation Zrotation
				JOINT Foot_Roll.R
				{
					OFFSET 0.005724 0.101011 0.052196
					CHANNELS 3 Xrotation Yrotation Zrotation
					JOINT IK.heel.R
					{
						OFFSET 0.010291 0.131807 0.088714
						CHANNELS 6 Xposition Yposition Zposition Xrotation Yrotation Zrotation
						End Site
						{
							OFFSET 0.000000 0.168428 0.002748
						}
					}
				}
				JOINT Tip_Bend.R
				{
					OFFSET 0.005724 0.101011 0.052196
					CHANNELS 3 Xrotation Yrotation Zrotation
					JOINT IK.Toe.R
					{
						OFFSET 0.003804 -0.096707 -0.008519
						CHANNELS 6 Xposition Yposition Zposition Xrotation Yrotation Zrotation
						End Site
						{
							OFFSET 0.000000 0.000000 0.065172
						}
					}
				}
				JOINT IK.Foot.R
				{
					OFFSET 0.005724 0.101011 0.052196
					CHANNELS 6 Xposition Yposition Zposition Xrotation Yrotation Zrotation
					End Site
					{
						OFFSET 0.000000 0.000000 0.065172
					}
				}
			}
		}
	}
}
MOTION
Frames: 2
Frame Time: 0.041667
0.000778 -0.024885 0.000000 -0.000000 0.000000 -0.000000 -0.000778 0.017893 0.989073 5.424625 -1.989219 0.190622 -0.000000 0.000000 -0.000000 0.000000 -0.000000 0.000000 0.256321 0.564308 5.423054 0.000041 0.056134 0.143686 0.000001 -0.000000 0.000000 -0.200317 -0.533462 -5.572031 0.018542 -0.003344 0.084525 -0.000000 0.000001 0.000001 0.181443 0.088619 0.012263 -44.308229 49.153084 49.898046 2.316397 -0.000842 -0.140982 18.732854 31.416609 -20.978127 1.814303 -0.112261 0.092402 3.365542 -6.228109 10.040441 0.131560 -0.044288 -0.003430 5.797073 25.693642 -2.020299 6.815258 25.406787 -3.313563 8.041966 24.969247 -4.632759 0.036406 -0.036857 -0.011201 7.202859 0.424187 9.195915 6.818392 0.487027 9.478092 5.733247 -1.246644 10.195287 0.134004 -0.042501 0.009780 6.266618 25.586020 -2.265074 0.023206 -0.054984 -0.005131 7.063621 0.572974 9.286318 0.141807 -0.009006 -0.004345 1.292825 26.262610 0.532866 1.310521 26.273605 -0.050445 1.492984 26.265419 -0.210425 0.143084 -0.008949 0.006529 1.727086 26.241003 0.378965 0.138971 0.005924 0.004276 -1.337029 26.273576 0.312059 0.139782 0.023734 -0.007806 -3.789046 26.002347 2.464644 -3.622293 26.023953 -0.760911 -3.101848 24.219110 -9.225714 0.143240 0.023967 0.004622 -3.568228 26.033611 2.377966 0.130197 0.052245 -0.017993 -9.272918 24.698335 3.214921 -9.752857 24.546377 1.652118 -9.026845 24.640300 -0.953226 0.130197 0.052245 -0.002467 -9.075685 24.768969 3.145475 0.442441 0.408671 0.082035 -5.515497 1.965972 -5.457173 0.300345 0.055826 -0.365876 23.250654 86.662417 -27.527088 -0.018959 -0.003344 0.084525 0.000001 -0.000002 0.000001 -0.180944 0.088619 0.012264 -40.389040 -57.346828 -40.294226 3.279256 0.002882 0.199512 17.987957 -25.155713 22.146868 1.763617 0.109168 -0.089754 1.393854 3.085413 -6.666943 -0.131560 -0.044288 -0.003431 5.480657 -24.533035 1.192491 6.418482 -24.317832 1.384290 7.666722 -23.973826 1.630105 -0.036406 -0.036857 -0.011201 5.995815 0.664550 -9.438943 6.293656 0.198873 -9.240351 5.743895 0.586998 -9.594361 -0.134004 -0.042501 0.009780 5.947266 -24.430502 1.288614 -0.023206 -0.054984 -0.005131 5.807610 1.179659 -9.531403 -0.141807 -0.009006 -0.004346 1.244960 -25.071864 0.276833 1.245887 -25.071830 0.277038 1.418846 -25.063220 0.315391 -0.143084 -0.008949 0.006529 1.677344 -25.048278 0.372630 -0.138971 0.005924 0.004276 -1.267021 -25.070829 -0.281722 -0.139782 0.023734 -0.007806 -3.648251 -24.851233 -0.804082 -3.383370 -24.886342 -0.746754 -2.942361 -24.938824 -0.650786 -0.143240 0.023967 0.004622 -3.400109 -24.884208 -0.750391 -0.130198 0.052245 -0.017993 -8.769947 -23.612432 -1.836551 -9.253199 -23.436372 -1.923307 -8.610070 -23.668245 -1.807343 -0.130197 0.052245 -0.002467 -8.609062 -23.668602 -1.807154 -0.442359 0.408671 0.082035 -5.515497 1.965972 -5.457173 -0.298679 0.006145 -0.364225 15.713953 -86.618724 27.146821 0.081843 -0.003680 0.016937 -38.929052 2.362818 0.270467 68.679854 -0.000014 0.000033 20.515141 1.070489 0.874943 -12.274494 0.520047 -0.155364 -0.081843 -0.003680 0.016937 -12.807874 2.200057 -0.549883 23.035986 0.000032 -0.000013 -14.833861 0.303788 1.094386 -4.940464 -0.159558 -0.270556 0.113238 0.142313 0.216723 32.430148 -0.000000 0.000000 0.000000 0.158529 0.000568 28.100870 0.000000 -0.000000 -0.016016 -0.691813 0.622580 0.000000 0.000000 -0.000000 -0.000003 0.000000 0.000000 -4.788936 -0.000000 -0.000000 -0.010291 0.131807 0.088713 0.000000 -0.000000 0.000000 -17.107614 0.000004 0.000002 -0.003804 -0.096707 -0.008519 0.000001 -0.000000 -0.000000 -0.005724 0.101011 0.052196 0.000002 -0.000000 -0.000000 -0.114793 0.094284 -0.000587 0.904685 0.000000 0.000000 -0.000000 0.158529 0.000568 -0.103499 -0.000000 0.000000 0.016016 -0.691813 0.622580 -0.000000 0.000000 0.000000 0.000003 0.000000 -0.000000 0.000002 0.000000 -0.000000 0.010291 0.131807 0.088714 0.000001 0.000000 -0.000000 -4.906692 -0.000002 0.000018 0.003804 -0.096707 -0.008519 -0.000000 0.000000 -0.000000 0.005724 0.101011 0.052196 0.000000 0.000000 -0.000000 
0.000778 -0.024885 0.000000 -0.000000 0.000000 -0.000000 -0.000778 0.015228 0.987528 5.317382 -1.879627 0.178343 0.000000 0.000000 -0.000000 -0.000001 0.000000 -0.000000 0.243580 0.532561 5.123907 0.000041 0.056134 0.143686 0.000003 -0.000000 -0.000000 -0.187923 -0.504562 -5.264604 0.018542 -0.003344 0.084525 -0.000001 0.000000 0.000002 0.181443 0.088619 0.012264 -41.362663 47.593977 50.695365 2.614665 -0.001390 -0.159161 19.633107 32.638663 -22.253019 1.980141 -0.122364 0.101026 4.071594 -6.627570 11.316503 0.131559 -0.044288 -0.003431 5.797069 25.693642 -2.020296 6.815255 25.406786 -3.313559 8.041967 24.969245 -4.632761 0.036406 -0.036857 -0.011201 7.202846 0.424186 9.195913 6.818383 0.487021 9.478078 5.733240 -1.246633 10.195273 0.134004 -0.042501 0.009780 6.266614 25.586013 -2.265070 0.023206 -0.054984 -0.005131 7.063607 0.572965 9.286315 0.141806 -0.009006 -0.004345 1.292824 26.262612 0.532868 1.310519 26.273593 -0.050444 1.492986 26.265416 -0.210428 0.143084 -0.008949 0.006529 1.727086 26.241001 0.378966 0.138971 0.005924 0.004276 -1.337031 26.273579 0.312058 0.139782 0.023734 -0.007806 -3.789043 26.002347 2.464644 -3.622286 26.023945 -0.760914 -3.101839 24.219099 -9.225704 0.143239 0.023967 0.004622 -3.568227 26.033613 2.377967 0.130197 0.052245 -0.017993 -9.272918 24.698329 3.214923 -9.752855 24.546377 1.652120 -9.026860 24.640300 -0.953224 0.130197 0.052245 -0.002467 -9.075686 24.768974 3.145478 0.442441 0.408671 0.082035 -5.413683 1.848107 -5.157440 0.301136 0.082622 -0.364502 27.103886 86.662424 -27.527180 -0.018959 -0.003344 0.084525 0.000001 -0.000002 -0.000005 -0.180944 0.088619 0.012263 -41.088014 -58.539352 -37.690073 2.862264 0.001885 0.174162 17.641702 -24.917466 22.187338 1.519140 0.094208 -0.077113 0.454996 3.289055 -5.946000 -0.131559 -0.044288 -0.003431 5.480663 -24.533037 1.192503 6.418483 -24.317823 1.384291 7.666723 -23.973824 1.630109 -0.036405 -0.036857 -0.011201 5.995804 0.664568 -9.438927 6.293646 0.198871 -9.240340 5.743895 0.586990 -9.594351 -0.134004 -0.042501 0.009780 5.947270 -24.430499 1.288618 -0.023206 -0.054984 -0.005131 5.807607 1.179666 -9.531394 -0.141806 -0.009006 -0.004346 1.244965 -25.071869 0.276834 1.245886 -25.071814 0.277038 1.418845 -25.063222 0.315392 -0.143084 -0.008949 0.006529 1.677347 -25.048272 0.372632 -0.138971 0.005924 0.004276 -1.267022 -25.070833 -0.281721 -0.139782 0.023734 -0.007806 -3.648249 -24.851227 -0.804080 -3.383370 -24.886347 -0.746753 -2.942361 -24.938815 -0.650787 -0.143240 0.023967 0.004622 -3.400107 -24.884205 -0.750390 -0.130198 0.052245 -0.017993 -8.769946 -23.612425 -1.836553 -9.253199 -23.436368 -1.923305 -8.610071 -23.668245 -1.807341 -0.130197 0.052245 -0.002467 -8.609061 -23.668598 -1.807153 -0.442359 0.408671 0.082035 -5.413683 1.848107 -5.157440 -0.297983 -0.021458 -0.358890 11.525775 -86.586622 26.928724 0.081843 -0.003680 0.016937 -43.638673 2.186654 0.347147 69.607598 -0.000013 0.000033 19.452719 1.004117 0.848726 -9.482285 0.396540 -0.115557 -0.081843 -0.003680 0.016937 -7.473274 2.102973 -0.820228 19.687721 0.000033 -0.000010 -14.605017 0.237249 1.150016 -7.188551 -0.243369 -0.272455 0.113238 0.080663 0.208197 29.007540 -0.000000 0.000000 0.000000 0.158529 0.000568 26.591122 0.000000 -0.000000 -0.016016 -0.691813 0.622580 0.000004 0.000000 0.000000 -0.000001 0.000000 0.000000 -4.811909 -0.000000 -0.000000 -0.010291 0.131807 0.088714 0.000000 0.000000 -0.000000 -14.326223 0.000004 0.000002 -0.003804 -0.096707 -0.008519 -0.000001 -0.000000 -0.000000 -0.005724 0.101011 0.052196 0.000002 -0.000000 0.000000 -0.114793 0.149313 0.001412 2.528255 0.000000 0.000000 -0.000000 0.158529 0.000568 0.378361 -0.000000 0.000000 0.016016 -0.691813 0.622580 0.000000 0.000000 0.000000 0.000001 0.000000 -0.000000 0.000000 -0.000000 -0.000000 0.010291 0.131807 0.088714 -0.000002 0.000000 0.000000 -7.161347 -0.000004 0.000026 0.003804 -0.096707 -0.008519 -0.000000 -0.000000 -0.000000 0.005724 0.101011 0.052196 -0.000001 -0.000000 -0.000000 
